<?xml version="1.0" standalone="no"?>
<!DOCTYPE svg PUBLIC "-//W3C//DTD SVG 20010904//EN"
 "http://www.w3.org/TR/2001/REC-SVG-20010904/DTD/svg10.dtd">
<svg version="1.0" xmlns="http://www.w3.org/2000/svg"
 width="526.000000pt" height="526.000000pt" viewBox="0 0 526.000000 526.000000"
 preserveAspectRatio="xMidYMid meet">
<metadata>
Created by potrace 1.14, written by Peter Selinger 2001-2017
</metadata>
<g transform="translate(0.000000,526.000000) scale(0.100000,-0.100000)"
fill="#000000" stroke="none">
<path d="M2438 5255 c-1 -1 -34 -6 -73 -9 -38 -4 -110 -14 -160 -23 -49 -8
-102 -17 -116 -19 -14 -2 -38 -8 -54 -14 -15 -6 -43 -13 -62 -16 -19 -3 -59
-14 -90 -25 -31 -10 -64 -19 -75 -19 -10 0 -18 -4 -18 -10 0 -5 -6 -10 -14
-10 -51 0 -379 -154 -509 -239 -43 -28 -82 -51 -87 -51 -6 0 -10 -4 -10 -8 0
-4 -14 -16 -31 -26 -108 -64 -391 -322 -499 -456 -25 -30 -47 -57 -50 -60 -12
-11 -110 -149 -152 -215 -84 -129 -174 -303 -219 -419 -11 -28 -24 -60 -29
-71 -25 -57 -94 -287 -105 -355 -3 -19 -9 -44 -12 -55 -6 -20 -8 -31 -18 -100
-3 -22 -8 -51 -10 -65 -27 -144 -27 -646 0 -722 2 -7 6 -31 9 -53 2 -22 12
-74 21 -115 8 -41 20 -97 25 -123 5 -27 13 -54 17 -60 4 -7 9 -21 10 -32 2
-11 6 -27 10 -35 3 -8 7 -19 8 -25 24 -102 184 -461 231 -516 8 -8 14 -19 14
-23 0 -6 76 -130 93 -151 4 -5 31 -42 60 -81 29 -40 73 -96 97 -125 57 -67
263 -273 320 -319 81 -65 180 -140 185 -140 3 0 15 -8 26 -18 10 -11 32 -25
47 -32 15 -8 35 -20 44 -28 17 -15 97 -60 158 -90 19 -9 37 -20 38 -24 2 -5
12 -8 23 -8 10 0 19 -4 19 -8 0 -5 15 -14 33 -20 17 -6 86 -33 152 -60 169
-69 416 -135 580 -156 216 -28 582 -29 720 -2 11 2 43 7 70 10 28 4 57 9 65
11 8 2 31 7 50 11 45 8 65 12 65 14 0 1 11 3 25 6 103 17 357 111 525 194 120
59 329 181 345 200 3 4 32 26 65 50 145 106 345 297 458 440 37 47 76 96 87
108 11 13 20 26 20 30 0 3 8 15 18 26 18 21 83 121 124 194 34 60 138 270 138
279 0 4 6 20 14 34 26 50 108 305 120 371 2 15 7 31 9 36 3 4 8 28 12 52 3 25
8 52 10 60 4 16 10 48 19 115 3 22 9 63 13 90 15 101 7 552 -12 645 -7 36 -16
92 -19 115 -2 11 -6 29 -9 40 -3 11 -9 32 -12 48 -3 15 -7 39 -10 55 -3 15
-20 72 -36 127 -17 55 -32 105 -33 110 -1 6 -10 27 -19 49 -9 21 -17 42 -17
46 0 4 -16 43 -36 86 -114 252 -223 432 -383 629 -58 71 -245 263 -317 325
-137 117 -314 239 -452 311 -30 16 -59 32 -65 37 -30 22 -279 123 -412 167
-56 18 -230 60 -286 69 -20 3 -42 7 -50 10 -8 3 -39 8 -69 11 -30 4 -66 9 -80
11 -29 6 -476 14 -482 9z"/>
<path d="M4493 352 c-59 -3 -63 -4 -63 -27 0 -23 4 -25 45 -25 l44 0 0 -87
c-1 -171 -3 -163 32 -163 l30 0 -1 113 c-1 61 -1 118 -1 125 1 8 11 13 24 12
55 -5 67 0 67 24 0 22 -4 24 -57 28 -32 1 -86 2 -120 0z"/>
<path d="M4738 352 c-32 -4 -35 -19 -30 -189 3 -111 4 -113 27 -113 30 0 32 7
30 122 0 54 1 95 4 92 4 -3 6 -9 7 -12 4 -37 19 -90 28 -101 6 -8 9 -16 8 -18
-2 -2 -1 -21 3 -44 7 -38 9 -40 38 -37 32 3 32 4 55 98 13 52 27 98 30 102 4
4 7 -40 6 -97 l-2 -105 29 0 29 0 -1 149 c0 164 0 161 -61 153 -28 -4 -36 -17
-52 -87 -2 -11 -5 -20 -6 -20 -1 0 -3 -9 -5 -21 -3 -11 -8 -31 -13 -45 -9 -22
-11 -19 -25 31 -8 30 -19 73 -24 94 -9 42 -28 54 -75 48z"/>
</g>
</svg>
